<svg width="338" height="338" viewBox="0 0 338 338" fill="none" xmlns="http://www.w3.org/2000/svg">
<path fill-rule="evenodd" clip-rule="evenodd" d="M90.3586 139.692C89.9305 138.704 88.2371 139.309 88.592 140.307C93.7485 154.829 97.3581 169.855 99.3607 185.134C99.5387 186.363 101.374 185.947 101.228 184.745C99.8756 173.674 95.0005 150.412 90.3586 139.692ZM126.818 270.611C123.415 269.662 121.212 269.024 117.755 268.284C117.507 268.219 117.243 268.253 117.019 268.38C116.796 268.506 116.631 268.715 116.56 268.961C116.489 269.208 116.517 269.473 116.638 269.699C116.76 269.925 116.965 270.094 117.209 270.171C120.193 271.203 124.811 271.793 125.096 272.46C125.209 272.727 118.132 297.246 116.923 299.135C115.901 300.729 114.253 299.4 112.892 298.823C111.372 298.178 110.254 297.921 108.73 297.29C107.295 296.693 106.618 299.039 108.054 299.628C109.769 300.331 111.096 300.623 112.814 301.309C115.687 302.454 117.772 303.49 119.038 299.745C122.106 290.687 124.758 281.165 127.579 271.997C127.656 271.711 127.619 271.408 127.476 271.149C127.333 270.891 127.095 270.698 126.813 270.611H126.818ZM63.6645 244.664C80.5025 253.351 98.6892 258.945 116.762 264.885C112.493 271.86 103.887 291.605 103.887 308.587C83.8161 303.424 14.9722 273.12 8.44995 256.271C1.92768 239.421 7.37061 168.491 18.2373 153.547C25.6857 143.304 46.6372 133.572 61.4495 129.223C73.2254 141.886 94.5915 183.446 102.395 202.321C102.269 218.26 102.421 234.236 103.634 250.134C103.724 251.306 105.409 251.052 105.412 249.929C105.453 232.86 104.946 215.775 105.002 198.665C105.076 175.475 109.122 153.373 106.731 129.808C116.892 131.614 126.87 134.329 136.545 137.92C136.545 146.955 135.367 237.352 135.202 263.244C114.211 262.11 86.3567 252.24 67.3081 243.131C58.4841 238.912 52.0069 235.613 52.8248 225.052C53.8659 211.597 53.7374 198.025 55.6742 184.677C55.6998 184.438 55.6319 184.198 55.4847 184.008C55.3376 183.818 55.1225 183.692 54.8847 183.657C54.6469 183.622 54.4047 183.68 54.2089 183.819C54.0131 183.959 53.8789 184.169 53.8343 184.405C51.2701 196.882 50.6222 214.24 50.2797 227.076C50.0487 235.726 56.1102 240.762 63.6611 244.658L63.6645 244.664ZM106.836 207.797C106.739 208.032 106.736 208.295 106.828 208.532C106.92 208.77 107.1 208.962 107.33 209.07C107.56 209.178 107.823 209.193 108.065 209.113C108.306 209.032 108.507 208.861 108.625 208.636C112.856 200.523 116.508 192.122 119.554 183.495C122.168 176.316 124.343 172.805 118.3 166.775C115.7 164.178 115.113 163.491 118.176 162.695C120.032 162.251 121.804 161.507 123.421 160.493C125.357 158.982 124.857 156.745 124.004 154.773C121.441 148.641 118.357 142.74 114.788 137.133C114.12 136.119 112.724 137.159 113.266 138.18C115.223 141.872 121.91 153.477 122.533 157.075C122.952 159.509 117.708 160.455 115.703 161.197C111.494 162.739 113.694 165.412 115.981 167.609C121.877 173.275 120.318 174.925 117.775 181.98C114.573 190.871 110.781 199.218 106.84 207.797H106.836ZM57.5906 139.422C57.9365 138.359 59.6186 138.945 59.3674 140.011C58.4863 143.737 56.7648 150.991 57.149 154.77C57.3394 156.645 58.7263 157.4 60.2665 157.953C62.9164 158.909 65.6441 159.666 68.3221 160.532C74.6844 162.59 73.0688 165.489 72.6677 171.028C72.0356 179.735 71.407 179.756 78.1647 185.466C84.6498 190.946 91.3287 197.344 98.0481 202.366C99.1275 203.173 97.7912 204.742 96.7412 203.975C89.5677 198.733 80.4609 190.688 73.9104 184.695C69.0995 180.29 70.1924 176.15 70.6127 170.31C70.8898 166.454 72.3196 164.163 67.9515 162.72C65.2475 161.829 62.5153 161.039 59.8293 160.104C57.9489 159.448 56.0302 158.433 55.3508 156.334C54.223 152.841 56.482 142.828 57.5906 139.422Z" fill="#7453B1"/>
<path fill-rule="evenodd" clip-rule="evenodd" d="M71.5546 69.7035C72.4356 70.3671 73.3741 69.2697 73.7437 68.5644C76.5682 63.1688 78.4757 55.1728 77.2442 49.1373C77.0414 48.1424 75.3503 48.0703 75.3683 49.1947C75.481 56.1328 75.2072 61.0247 71.905 67.3487C68.4833 64.3135 62.4703 64.2966 61.5599 69.3204C60.751 73.7921 62.9187 81.0873 66.1624 84.2972C66.7618 84.9633 67.5455 85.4367 68.4141 85.6573C69.2827 85.8779 70.1972 85.8359 71.0419 85.5365C72.3703 96.9361 74.3093 108.29 74.7723 120.472C74.8193 120.699 74.9451 120.901 75.1272 121.043C75.3093 121.186 75.536 121.259 75.767 121.25C75.998 121.241 76.2183 121.15 76.3888 120.994C76.5592 120.838 76.6687 120.626 76.6978 120.397C77.4482 109.61 74.36 94.4744 72.7229 83.7113C72.5539 82.5937 71.5197 82.1486 70.767 82.7638C68.9745 84.2284 67.4715 82.1621 66.586 80.6783C65.0954 78.1816 63.1508 72.5032 64.1006 69.5671C65.2599 65.9855 69.5863 68.223 71.5546 69.7035ZM101.287 125.094C101.462 127.211 101.788 140.095 100.006 140.615C97.9851 141.204 91.4042 135.042 87.7065 134.258C85.9601 135.637 77.0167 142.501 74.8095 140.876C72.1055 138.889 71.3698 126.342 71.532 123.512C71.5553 123.336 71.6181 123.168 71.7157 123.02C71.8133 122.872 71.9432 122.748 72.0955 122.658C72.2479 122.567 72.4187 122.513 72.5953 122.498C72.7719 122.482 72.9496 122.508 73.115 122.571C78.1393 124.031 82.9222 126.22 87.311 129.069C90.2217 127.78 92.9915 126.194 95.5762 124.337C97.6932 122.81 100.893 120.275 101.293 125.095L101.287 125.094ZM94.2445 108.445C102.671 110.641 110.875 108.6 114.271 99.746C119.609 85.8306 114.503 57.3969 107.792 43.5592C107.243 42.4269 105.669 43.3338 106.102 44.4605C112.102 59.8857 116.633 78.6413 113.467 95.0658C111.363 105.978 103.948 109.149 93.8536 106.254C91.4076 105.552 89.0089 104.595 86.6981 103.732C85.5928 103.32 85.1489 104.986 86.1708 105.448C88.1507 106.362 90.1787 107.169 92.2458 107.864C92.7303 111.596 92.3957 119.339 92.5173 121.344C92.5849 122.456 94.24 122.403 94.4327 121.331C94.8259 119.144 94.4969 110.562 94.2434 108.451L94.2445 108.445ZM92.016 29.424C90.9231 29.4657 90.9817 31.1861 92.0272 31.3179C97.0848 31.9545 104.779 33.3921 104.062 40.2952C104.057 40.5182 104.135 40.7353 104.28 40.9044C104.426 41.0735 104.629 41.1826 104.85 41.2106C105.071 41.2387 105.295 41.1836 105.478 41.0562C105.661 40.9287 105.791 40.7378 105.841 40.5205C107.439 32.991 98.2926 29.175 92.016 29.4195V29.424ZM97.8577 41.5267C97.9747 41.7358 98.0038 41.9829 97.9386 42.2135C97.8735 42.4441 97.7193 42.6394 97.5102 42.7564C97.301 42.8734 97.0539 42.9025 96.8233 42.8373C96.5927 42.7721 96.3974 42.618 96.2804 42.4088C94.3158 39.4876 91.6196 37.1325 88.4606 35.5787C85.3017 34.0248 81.7905 33.3264 78.2774 33.5532C72.9742 33.756 60.3026 36.9884 59.2784 43.2099C59.0756 44.4391 56.9755 44.1394 57.1242 42.917C58.0256 35.5159 71.256 31.8339 77.4346 31.4047C85.2413 30.8628 94.2085 34.1526 97.8589 41.5267H97.8577ZM84.2544 44.8098C85.1433 45.3799 84.3265 46.9335 83.3767 46.4603C77.6093 43.5851 70.4347 42.3773 64.4724 45.497C57.3811 49.206 58.9675 56.8673 62.7474 62.4342C62.9058 62.6491 62.975 62.9168 62.9408 63.1815C62.9065 63.4462 62.7714 63.6874 62.5635 63.8548C62.3557 64.0223 62.0912 64.103 61.8253 64.0801C61.5593 64.0573 61.3125 63.9326 61.1363 63.7321C56.3435 58.0605 55.6156 48.5221 62.5097 44.1687C68.819 40.1814 78.1016 40.8619 84.2544 44.8098ZM109.465 67.271C110.443 67.9706 109.942 68.712 109.055 68.7931C107.966 68.7184 106.872 68.7889 105.802 69.0027C104.892 69.228 104.203 68.2861 105.312 67.4434C105.932 67.0636 106.639 66.8484 107.366 66.8183C108.093 66.7881 108.815 66.9439 109.465 67.271ZM94.9566 68.1025C96.8629 68.5836 96.935 70.1969 94.8439 70.0561C93.3368 70.0195 91.8367 70.2727 90.4251 70.802C89.5621 71.069 89.1047 70.0358 89.8854 69.3373C90.5932 68.7813 91.4122 68.3838 92.2869 68.1718C93.1616 67.9597 94.0716 67.938 94.9554 68.1081L94.9566 68.1025ZM109.797 60.5842C110.377 61.5239 109.633 62.2889 108.797 61.694C106.509 60.0603 104.875 60.5515 103.24 62.2765C103.072 62.4373 102.851 62.5324 102.619 62.5446C102.387 62.5567 102.158 62.485 101.974 62.3425C101.79 62.2001 101.663 61.9963 101.617 61.7683C101.57 61.5403 101.607 61.3032 101.721 61.1002C103.137 58.1709 108.166 57.9377 109.797 60.5842ZM95.6247 61.356C96.8268 62.1075 95.5751 63.9473 94.3854 63.1778C93.1301 62.3717 91.6071 62.0945 90.1483 62.4067C88.6895 62.7188 87.4133 63.595 86.5978 64.8442C86.4531 65.0359 86.2402 65.1647 86.0031 65.2037C85.7661 65.2426 85.5231 65.1889 85.3246 65.0536C85.1261 64.9182 84.9873 64.7117 84.937 64.4768C84.8866 64.2419 84.9286 63.9966 85.0543 63.7918C87.0958 59.9995 92.1106 59.1579 95.6269 61.356H95.6247ZM109.933 90.433C112.03 92.123 111.463 92.6863 109.083 92.096C107.607 91.5902 106.09 91.2132 104.549 90.9693C104.34 90.9345 104.148 90.8291 104.007 90.6706C103.866 90.5121 103.783 90.31 103.772 90.0979C103.761 89.8859 103.824 89.6765 103.948 89.5046C104.073 89.3328 104.253 89.2087 104.458 89.1531C105.389 88.823 106.395 88.7598 107.36 88.9706C108.297 89.305 109.168 89.8007 109.933 90.4353V90.433ZM101.247 89.3875C101.987 89.7255 102.246 90.6561 101.546 91.1101C100.157 91.7376 98.7222 92.2585 97.2538 92.6683C95.8275 93.2091 94.685 93.7724 93.2553 94.4034C91.5653 95.1481 90.2065 94.6895 92.1805 93.1922C93.5325 92.1658 94.7583 90.7259 96.3232 90.0499C97.5873 89.5035 100.164 88.885 101.251 89.3875H101.247ZM102.282 66.3877C104.875 72.066 106.247 78.2253 106.31 84.4673C106.29 88.8613 103.725 88.3104 100.667 87.2164C99.353 86.8265 98.1084 86.2339 96.9778 85.4599C96.8301 85.3202 96.7317 85.1364 96.6972 84.936C96.6628 84.7357 96.6941 84.5296 96.7866 84.3485C96.8791 84.1675 97.0277 84.0213 97.2103 83.9318C97.3928 83.8423 97.5994 83.8144 97.7992 83.8521C98.883 84.1789 99.8869 84.7535 100.945 85.1613C102.809 85.8734 104.263 86.1562 104.246 84.5552C104.187 78.4949 102.941 72.505 100.579 66.924C100.132 65.8379 101.813 65.3748 102.287 66.3877H102.282ZM196.922 274.677C198.274 273.053 199.232 274.8 198.47 275.789C195.7 279.386 187.848 279.619 183.598 280.093C169.08 281.7 165.93 285.275 153.347 291.267C144.98 295.369 135.673 297.174 126.379 296.497C122.844 296.281 124.502 294.09 126.482 294.185C134.459 294.566 143.097 293.519 154.546 287.752C165.852 282.056 170.048 279.329 182.921 277.881C186.713 277.455 194.492 277.595 196.922 274.677ZM210.555 158.855C210.826 147.803 220.61 136.66 233.475 136.66C248.331 136.66 256.495 149.253 256.624 157.315C241.716 158.583 218.346 159.036 210.555 158.855ZM231.663 111.697C237.707 111.148 242.536 114.144 242.715 121.3C242.895 128.457 237.732 131.717 233.656 131.717C229.58 131.717 222.875 128.91 222.422 122.659C221.969 116.408 225.689 112.241 231.661 111.697H231.663ZM273.537 80.8259C273.316 80.7596 273.079 80.7683 272.864 80.8505C272.649 80.9326 272.466 81.0838 272.346 81.2803C272.225 81.4768 272.173 81.7076 272.198 81.9368C272.222 82.166 272.322 82.3807 272.481 82.5475C274.137 84.7726 275.325 85.8249 275.664 88.8568C275.91 91.056 277.727 91.5281 278.204 88.8207C278.703 85.9928 276.233 81.6867 273.537 80.8282V80.8259ZM263.915 78.994C268.437 78.3957 272.395 86.4232 272.213 90.4353C272.072 93.5527 270.082 94.3538 269.485 90.62C269.034 87.7651 267.232 81.3926 263.911 80.9543C263.678 80.9171 263.466 80.798 263.313 80.6184C263.159 80.4387 263.075 80.2103 263.075 79.9742C263.075 79.738 263.159 79.5096 263.313 79.3299C263.466 79.1503 263.678 79.0312 263.911 78.994H263.915ZM264.287 90.5986C264.326 84.6442 260.005 76.8398 253.142 78.5636C252.314 78.772 252.096 80.3144 253.151 80.4575C259.378 81.3036 260.432 85.8351 261.302 91.1383C262.02 95.5052 264.259 94.9859 264.287 90.5986ZM243.005 81.1752C248.91 76.2933 257.201 84.1777 255.624 91.7174C255.279 93.3691 253.468 92.4024 253.346 90.993C253.022 87.2603 250.529 80.515 243.981 82.7987C243.103 83.104 242.255 81.796 243.005 81.1752ZM330.582 177.248C330.307 155.504 331.462 132.78 330.582 111.32C329.984 96.6736 329.606 88.0816 313.2 86.0525C303.406 84.8414 290.808 85.8013 281.304 85.8621C281.05 85.8724 280.811 85.9798 280.634 86.1622C280.458 86.3446 280.359 86.5878 280.357 86.8415C280.355 87.0952 280.451 87.3398 280.625 87.5245C280.799 87.7093 281.037 87.82 281.29 87.8338C291.235 88.3284 302.723 88.0208 311.795 88.5672C326.263 89.4382 328.322 97.0094 328.347 112.809C328.379 134.469 327.783 156.102 327.982 177.79C328.186 200.171 329.959 225.04 329.31 247.132C328.669 268.959 318.433 268.088 303.186 268.463C257.237 269.611 208.521 268.771 162.691 269.111C161.639 269.119 161.641 270.963 162.691 270.973C206.604 271.424 256.791 272.609 300.996 271.375C321.456 270.802 330.525 271.624 332.016 247.827C333.248 228.169 330.727 189.194 330.576 177.254L330.582 177.248ZM245.861 85.7393C220.196 85.452 192.865 84.6723 167.282 85.568C154.817 86.0041 140.078 90.5874 140.078 105.489C140.053 145.47 139.84 185.444 139.903 225.432C139.916 234.713 139.186 246.507 140.226 255.379C140.708 259.488 142.053 262.353 145.081 264.711C145.956 265.394 147.672 264.254 146.513 263.097C143.703 260.302 142.908 257.424 142.657 253.842C141.981 243.962 142.633 232.41 142.638 222.313C142.656 183.402 142.526 144.487 142.526 105.581C142.526 90.9918 158.099 88.2766 169.615 88.1357C194.94 87.8248 220.315 88.4568 245.654 88.3273C247.304 88.3183 247.541 85.7585 245.858 85.7359L245.861 85.7393ZM255.65 223.428C256.124 223.388 256.602 223.454 257.048 223.621C257.494 223.788 257.898 224.052 258.23 224.393C258.562 224.735 258.814 225.146 258.968 225.596C259.123 226.047 259.175 226.526 259.122 227C258.769 230.11 255.161 230.099 253.714 228.044C253.404 227.641 253.205 227.162 253.14 226.657C253.074 226.153 253.144 225.639 253.341 225.17C253.538 224.701 253.856 224.292 254.262 223.986C254.668 223.679 255.149 223.485 255.654 223.425L255.65 223.428ZM243.53 223.642C243.996 223.739 244.43 223.953 244.79 224.265C245.15 224.576 245.425 224.975 245.587 225.423C245.75 225.87 245.795 226.352 245.719 226.822C245.643 227.292 245.448 227.735 245.152 228.108C243.604 230.213 239.781 229.084 239.639 226.885C239.642 226.403 239.751 225.927 239.958 225.492C240.164 225.056 240.463 224.67 240.833 224.362C241.203 224.053 241.636 223.829 242.102 223.705C242.568 223.58 243.055 223.559 243.53 223.642ZM232.844 225.287C233.075 225.61 233.24 225.976 233.327 226.363C233.415 226.751 233.423 227.152 233.352 227.542C233.281 227.933 233.132 228.306 232.914 228.638C232.696 228.97 232.414 229.254 232.083 229.475C231.609 229.711 231.083 229.823 230.554 229.8C230.024 229.776 229.51 229.619 229.058 229.342C228.607 229.065 228.233 228.678 227.972 228.217C227.711 227.756 227.572 227.236 227.567 226.707C227.608 226.106 227.835 225.533 228.217 225.068C228.599 224.602 229.117 224.268 229.698 224.112C230.28 223.955 230.895 223.985 231.459 224.195C232.023 224.406 232.507 224.788 232.844 225.287ZM218.595 224.827C220.667 225.591 221.514 228.145 219.461 229.312C218.765 229.723 217.966 229.929 217.157 229.906C216.348 229.882 215.563 229.629 214.891 229.177C212.413 227.213 214.57 223.345 218.595 224.827ZM203.147 224.53C203.612 224.428 204.094 224.434 204.557 224.546C205.019 224.659 205.45 224.875 205.816 225.18C206.182 225.484 206.474 225.868 206.669 226.302C206.864 226.736 206.958 227.209 206.943 227.685C206.787 230.507 203.467 230.605 201.743 229.199C201.353 228.862 201.069 228.419 200.926 227.924C200.782 227.43 200.784 226.904 200.933 226.41C201.081 225.917 201.369 225.477 201.762 225.143C202.155 224.81 202.636 224.597 203.147 224.531V224.53ZM191.598 224.949C192.054 225.005 192.491 225.167 192.872 225.424C193.254 225.68 193.569 226.023 193.793 226.425C194.016 226.826 194.142 227.275 194.16 227.735C194.177 228.194 194.085 228.651 193.893 229.068C192.942 231.233 189.221 231.618 188.355 228.861C188.205 228.379 188.178 227.867 188.275 227.372C188.373 226.877 188.593 226.414 188.915 226.026C189.237 225.637 189.651 225.335 190.12 225.147C190.588 224.959 191.096 224.891 191.598 224.949ZM290.68 237.936C291.189 231.297 290.315 220.305 290.829 216.277C290.969 215.165 292.672 214.727 292.931 216.015C292.978 216.247 293.402 232.485 293.138 237.454C292.995 240.167 293.302 240.417 290.289 240.591C268.017 241.867 245.042 241.738 222.689 242.055C208.229 242.261 194.139 242.619 179.68 242.309C177.465 242.261 177.969 241.433 177.836 239.594C177.435 234.051 177.836 226.75 177.736 217.592C177.778 217.218 177.951 216.872 178.225 216.614C178.498 216.356 178.854 216.202 179.229 216.181C210.121 214.953 252.617 214.989 287.421 214.433C287.733 214.447 288.028 214.582 288.244 214.809C288.46 215.036 288.58 215.337 288.579 215.65C288.578 215.963 288.456 216.264 288.239 216.489C288.021 216.714 287.725 216.847 287.413 216.86C250.847 216.647 209.059 218.973 180.13 218.074C179.899 225.642 180.289 233.7 180.018 240.24C202.664 239.548 225.084 239.606 247.77 239.121C262.148 238.814 276.362 237.973 290.687 237.936H290.68ZM290.229 194.672C291.03 187.774 289.861 180.277 290.211 173.584C253.642 173.884 216.459 173.957 179.876 173.998C179.623 179.917 179.817 190.528 179.55 196.048C179.488 197.329 177.572 197.465 177.522 196.138C177.281 189.575 177.142 181.303 177.416 174.658C177.529 171.881 177.884 171.874 180.436 171.817C214.213 171.064 255.218 170.4 288.934 171.253C291.703 171.324 292.144 171.422 292.531 174.408C293.025 178.218 293.386 193.075 292.635 196.113C292.579 196.405 292.424 196.67 292.197 196.862C291.97 197.054 291.684 197.163 291.386 197.17C254.906 198 219.572 198.591 184.325 198.138C183.025 198.122 183.178 196.164 184.438 196.152C219.726 195.77 255.288 194.886 290.232 194.662L290.229 194.672ZM161.08 257.94C165.994 256.729 166.572 260.193 163.36 263.33C160.563 266.028 158.321 269.247 156.761 272.807C156.176 274.126 154.057 273.343 154.647 272.018C156.442 268.045 158.969 264.445 162.098 261.409C163.624 259.885 163.5 259.773 161.559 260.268C150.932 262.972 143.449 277.664 131.768 276.801C127.74 276.504 128.448 274.732 131.768 274.66C142.962 274.406 150.202 260.622 161.08 257.94Z" fill="#0E0E0E"/>
</svg>
